<?xml version="1.0" encoding="utf-8"?>
<!-- Generator: Adobe Illustrator 19.2.0, SVG Export Plug-In . SVG Version: 6.00 Build 0)  -->
<svg version="1.1" id="Layer_1" xmlns="http://www.w3.org/2000/svg" xmlns:xlink="http://www.w3.org/1999/xlink" x="0px" y="0px"
	 viewBox="0 0 100 125" style="enable-background:new 0 0 100 125;" xml:space="preserve">
<style type="text/css">
	.st0{fill:#22A57B;}
</style>
<g>
	<path class="st0" d="M97.3,86L76.1,64.8c-3.2,1.1-6.7,0.6-9.6-1.4C79.8,48.5,79.3,25.7,65,11.4c-14.8-14.8-38.8-14.8-53.6,0
		C-3.3,26.2-3.3,50.2,11.4,65c14.2,14.2,37.1,14.7,51.9,1.5c2,2.8,2.5,6.4,1.4,9.6L86,97.3c3.1,3.1,8.2,3.1,11.3,0
		C100.4,94.2,100.4,89.1,97.3,86z M38.2,67.2c-16,0-28.9-13-28.9-28.9c0-16,13-28.9,28.9-28.9c16,0,28.9,13,28.9,28.9
		C67.2,54.2,54.2,67.2,38.2,67.2z"/>
	<path class="st0" d="M38.2,12.1c-14.3,0-25.9,11.6-25.9,25.9C12.3,52.4,23.9,64,38.2,64c14.3,0,25.9-11.6,25.9-25.9
		C64.2,23.7,52.5,12.1,38.2,12.1z M57,41.8c-1.8,0-3.2-1.4-3.2-3.2c0-8.8-7.2-16-16-16c-1.8,0-3.2-1.4-3.2-3.2
		c0-1.8,1.4-3.2,3.2-3.2c12.3,0,22.4,10,22.4,22.4C60.2,40.4,58.8,41.8,57,41.8z"/>
</g>
</svg>
