<?xml version="1.0" encoding="utf-8"?>
<!-- Generator: Adobe Illustrator 19.2.0, SVG Export Plug-In . SVG Version: 6.00 Build 0)  -->
<svg version="1.1" id="Layer_1" xmlns="http://www.w3.org/2000/svg" xmlns:xlink="http://www.w3.org/1999/xlink" x="0px" y="0px"
	 viewBox="0 0 100 125" style="enable-background:new 0 0 100 125;" xml:space="preserve">
<style type="text/css">
	.st0{fill:#E55C4C;}
</style>
<g>
	<path class="st0" d="M85.9,79.7c3-4.6,1.6-9.8-2.7-11c-6.6-1.8-6.4-9.9,1.5-14c29-15,12.8-49.2-14.1-49.2
		c-15.6,0-29.1,8.2-36.1,20.7L66.9,60c5.1,0.1,9.2,4.3,9.2,9.5c0,0,0,0.1,0,0.1c0,1.4-0.4,2.8-1,4c-0.9,1.7-2.2,3.2-3.9,4.1
		c-1.2,0.6-2.5,1-3.9,1.1c-0.2,0-0.5,0-0.7,0c-5.2,0-9.5-4.2-9.5-9.5c0-0.1,0-0.2,0-0.3L29.4,42.3c-0.1,1.2-0.2,2.3-0.2,3.5
		c0,0.7,0,1.4,0.1,2.1c0,0.2,0,0.5,0.1,0.7c0,0.5,0.1,0.9,0.1,1.4c0,0.3,0.1,0.5,0.1,0.8c0,0.4,0.1,0.8,0.2,1.2
		c0,0.3,0.1,0.6,0.1,0.9c0.1,0.4,0.1,0.8,0.2,1.2c0.1,0.3,0.1,0.6,0.2,0.9c0.1,0.4,0.2,0.7,0.3,1.1c0.1,0.3,0.2,0.6,0.2,0.9
		c0.1,0.4,0.2,0.7,0.3,1.1c0.1,0.3,0.2,0.6,0.3,0.9c0.1,0.4,0.2,0.7,0.4,1.1c0.1,0.3,0.2,0.6,0.3,0.9c0.1,0.3,0.3,0.7,0.4,1l0.4,0.8
		c0.1,0.3,0.3,0.7,0.4,1c0.1,0.3,0.3,0.6,0.4,0.8c0.2,0.3,0.3,0.7,0.5,1c0.1,0.3,0.3,0.5,0.4,0.8c0.2,0.3,0.4,0.6,0.5,1
		c0.2,0.3,0.3,0.5,0.5,0.8c0.2,0.3,0.4,0.6,0.6,0.9c0.2,0.3,0.3,0.5,0.5,0.8c0.2,0.3,0.4,0.6,0.6,0.9c0.2,0.2,0.3,0.5,0.5,0.7
		c0.2,0.3,0.4,0.6,0.7,0.9c0.2,0.2,0.4,0.5,0.5,0.7c0.2,0.3,0.5,0.6,0.7,0.9c0.2,0.2,0.4,0.4,0.6,0.6c0.3,0.3,0.5,0.6,0.8,0.8
		c0.2,0.2,0.4,0.4,0.6,0.6c0.3,0.3,0.5,0.5,0.8,0.8c0.2,0.2,0.4,0.4,0.6,0.6c0.3,0.3,0.6,0.6,0.9,0.8c0.2,0.2,0.4,0.3,0.6,0.5
		c0.3,0.3,0.7,0.6,1,0.8c0.2,0.1,0.3,0.3,0.5,0.4c0.5,0.4,0.9,0.7,1.4,1c0.1,0,0.1,0.1,0.2,0.1c0.5,0.4,1.1,0.7,1.6,1.1
		c0.1,0.1,0.3,0.2,0.4,0.2c0.4,0.3,0.8,0.5,1.3,0.7c0.2,0.1,0.4,0.2,0.6,0.3c0.4,0.2,0.7,0.4,1.1,0.6c0.2,0.1,0.5,0.2,0.7,0.3
		c0.4,0.2,0.7,0.3,1.1,0.5c0.3,0.1,0.5,0.2,0.8,0.3c0.3,0.1,0.7,0.3,1,0.4c0.3,0.1,0.5,0.2,0.8,0.3c0.3,0.1,0.7,0.2,1,0.3
		c0.3,0.1,0.6,0.2,0.9,0.2c0.3,0.1,0.7,0.2,1,0.3c0.3,0.1,0.6,0.1,0.9,0.2c0.4,0.1,0.7,0.1,1.1,0.2c0.3,0,0.6,0.1,0.9,0.1
		c0.4,0.1,0.7,0.1,1.1,0.1c0.3,0,0.6,0.1,0.9,0.1c0.4,0,0.7,0.1,1.1,0.1c0.3,0,0.6,0,0.9,0c0.2,0,0.4,0,0.5,0c0.2,0,0.5,0,0.7,0
		c0.2,0,0.4,0,0.6,0c0.6,0,1.3-0.1,1.9-0.1c1.7-0.2,3.2-0.4,4.6-0.8c1.4-0.3,2.6-0.7,3.8-1.2c1.9-0.8,3.4-1.7,4.7-2.8
		C84.5,81.5,85.3,80.6,85.9,79.7z M81.5,87.7l9.5,8.9l4.3-3.9l-8.6-9.2C85.5,85.1,83.2,86.9,81.5,87.7z M58.2,65.2
		C58.2,65.2,58.2,65.2,58.2,65.2l9.7,9.3c1.7-1,3.2-2.4,4-4.2l-9.1-9.5c0,0,0,0,0,0L32.7,29.5l-2.6-2.7l-3.3-3.4
		c-0.2-0.2-0.3-0.3-0.5-0.5c-0.1-0.1-0.1-0.1-0.2-0.2c-0.1-0.1-0.2-0.1-0.3-0.2c-0.1-0.1-0.2-0.1-0.2-0.2c-0.1-0.1-0.2-0.1-0.2-0.2
		c-0.1-0.1-0.2-0.1-0.2-0.1c-0.1,0-0.1-0.1-0.2-0.1c-0.1,0-0.1-0.1-0.2-0.1c-0.1,0-0.1-0.1-0.2-0.1c0,0-0.1,0-0.1,0
		c-0.4,1.2-1,2.2-2,3.2c-0.9,0.9-2,1.6-3.1,2c0.3,0.8,0.8,1.6,1.6,2.4L30,38L58.2,65.2z M21.1,14.9c-0.2-1.4-0.9-2.8-2-3.9
		c0,0,0,0-0.1-0.1c0,0,0,0,0-0.1c0-0.1-0.1-0.1-0.2-0.2c0,0-0.1-0.1-0.1-0.1c-0.1-0.1-0.1-0.2-0.2-0.2c-0.1-0.1-0.1-0.1-0.2-0.2
		c-0.1-0.1-0.2-0.2-0.3-0.3c-0.1-0.1-0.2-0.2-0.3-0.3c-0.1-0.1-0.2-0.2-0.4-0.3C17.2,9.1,17,9,16.9,8.9c-0.1-0.1-0.3-0.2-0.5-0.4
		c-0.1-0.1-0.3-0.2-0.4-0.3c-0.2-0.1-0.3-0.3-0.5-0.4c-0.2-0.1-0.3-0.2-0.5-0.3c-0.2-0.1-0.4-0.3-0.6-0.4C14.2,7,14,6.8,13.9,6.7
		c-0.2-0.1-0.4-0.3-0.7-0.4C13,6.2,12.8,6.1,12.6,6c-0.2-0.1-0.5-0.2-0.8-0.4c-0.2-0.1-0.5-0.2-0.7-0.3c-0.3-0.1-0.5-0.2-0.8-0.3
		c-0.2-0.1-0.5-0.2-0.8-0.3C9.3,4.7,9,4.6,8.7,4.5C8.4,4.4,8.1,4.3,7.8,4.2C7.5,4.2,7.2,4.1,6.9,4C6.6,3.9,6.3,3.9,6,3.8
		C5.7,3.8,5.3,3.7,5,3.7C4.6,3.6,4.3,3.6,4,3.5c-0.4,0-0.7-0.1-1.1-0.1c-0.3,0-0.7,0-1,0c-0.1,0-0.3,0-0.4,0c-0.5,0-1,0-1.5,0
		c8.1,4.8,4.5,10.4,8.6,16.8c0.1,0.1,0.2,0.3,0.4,0.4c0.1,0.1,0.2,0.2,0.2,0.2c1.1,1.1,2.5,1.7,3.9,2c0.3,0.1,0.7,0.1,1,0.1
		c0.1,0,0.3,0,0.4,0c0.2,0,0.3,0,0.5,0c0.3,0,0.5-0.1,0.8-0.1c0.3-0.1,0.5-0.1,0.7-0.2c0.1,0,0.3-0.1,0.4-0.1c0.3-0.1,0.7-0.3,1-0.5
		c0.1,0,0.2-0.1,0.2-0.2c0.3-0.2,0.7-0.5,1-0.8C20.8,19.2,21.4,17,21.1,14.9z"/>
</g>
</svg>
