<?xml version="1.0" encoding="utf-8"?>
<!-- Generator: Adobe Illustrator 19.2.0, SVG Export Plug-In . SVG Version: 6.00 Build 0)  -->
<svg version="1.1" id="Layer_1" xmlns="http://www.w3.org/2000/svg" xmlns:xlink="http://www.w3.org/1999/xlink" x="0px" y="0px"
	 viewBox="0 0 60 125" style="enable-background:new 0 0 60 125;" xml:space="preserve">
<g>
	<path d="M43,32c0-5.9-3.6-4.8-7.1-5.5c-3.6-0.7-2.9-5.2-2.9-5.3c0.1-0.2,0.4-0.5,0.5-1c0.1-0.5,0.2-1.1,0.4-1.4
		c0.2,0.1,0.5,0,0.5-0.2c0.1-0.2,0.1-0.9,0.2-1.1c0.1-0.2,1.1-1.8,0.5-2.1c-0.2-0.1-0.4,0.1-0.4,0.2c0-0.7,0.4-2.2-0.1-3.8
		c-0.2-1.2-1.4-3.6-4.4-3.6c-3.3,0-4.7,2.8-4.8,3.9c-0.1,1.2,0.2,3.7,0.1,3.4c-0.2-0.6-0.6-0.4-0.7-0.2c-0.1,0.1-0.2,0.2,0.1,1
		c0.2,0.5,0.5,1.2,0.5,1.4c0,0.1,0.1,1,0.6,1c0.2,0,0.5,0.5,0.6,0.9c0.1,0.4,0.2,1.4,0.7,1.5c0,0,0.7,4.5-2.8,5.3
		c-3.6,0.7-7-0.4-7.1,5.5c0,5.9,0.5,10.7-0.1,12.3c-0.9,2.2-0.2,17-0.2,17s0.7,3.1,0.6,3.7c0,0.5-0.2,1.1-0.1,1.6
		c0.1,0.4,2.6,3.7,2.7,3.9c0.1,0.1,0.5,0.2,0.6,0.4c0.2,1.1,0.6,2.2,1,3.3c2.1,5.3,2.1,5.8,2.3,7.1c0.1,0.4,0.2,2.2,0.1,4.7
		c-0.1,2.1-0.4,4.7-0.4,7.1c0,3.3,2,8.8,2.2,9.8c0.5,1.8,0.2,3.4,0.2,3.4l-0.1,1.6l0.1,0.2c0,0-0.4,1.5-0.4,1.7c0,0.2,0.2,1.4,0,2
		c-0.1,0.5-0.6,2.1-0.6,2.1l-0.4,0.5l-0.1,0.9l0.2,0.2h0.4l0.2,0.6h0.4h0.4l0.2,0.4l0.4,0.1l0.2-0.1l0.4,0.2h0.2l0.7-0.1
		c0,0,0.5,0.2,0.7,0.2s0.5-0.2,0.5-0.2s0-0.1,0.1-0.4c0,0.2,0.1,0.4,0.1,0.4s0.2,0.2,0.5,0.2c0.2,0,0.7-0.2,0.7-0.2l0.7,0.1h0.2
		l0.4-0.2l0.2,0.1l0.4-0.1l0.2-0.4h0.4h0.4l0.2-0.6h0.4l0.2-0.2l-0.1-0.9l-0.4-0.5c0,0-0.5-1.6-0.6-2.1c-0.1-0.5,0-1.7,0-2
		c0-0.2-0.4-1.7-0.4-1.7l0.1-0.2l-0.1-1.6c0,0-0.2-1.6,0.2-3.4c0.2-0.9,2.2-6.5,2.2-9.8c0-2.6-0.2-5-0.4-7.1
		c-0.1-2.5,0.1-4.3,0.1-4.7c0.2-1.4,0.2-1.7,2.3-7.1c0.4-1.1,0.7-2.2,1-3.3c0.1,0,0.5-0.2,0.6-0.4c0.1-0.2,2.6-3.6,2.7-3.9
		c0.1-0.4,0-1-0.1-1.6c0-0.5,0.6-3.7,0.6-3.7s0.6-14.7-0.2-17C42.5,42.8,43.1,37.9,43,32z M23.1,50.4c-0.2,0.4-2.6,4.8-2.9,11.1
		c-0.2-0.4-0.6-0.9-0.7-0.9c-0.1-0.1,0.4-9,1.5-13.5c0.4-1.2,0-4.9,0-5.3c0-2,0.1-2.1,0.1-2.1s0.6,1,0.9,1.1c0.1,0,0.2,2.1,1.4,4.8
		C24,47.8,23.2,50,23.1,50.4z M29.6,65.5c0.1-0.4,0.6-0.2,0.6-0.2s0.5-0.1,0.6,0.2c0.1,0.4-0.9,5.3-0.6,10.9
		c0.2,3.8,0.1,7.3,0.1,7.6c0,0.7,0.2,3.4,0.2,4.3c0,0.6-0.4,2.9-0.5,4.8c-0.1-2-0.5-4.2-0.5-4.8c0-0.9,0.2-3.6,0.2-4.3
		c0-0.2-0.1-3.8,0.1-7.6C30.5,70.8,29.4,65.9,29.6,65.5z M30.2,113.2c-0.2-0.7-0.5-1.6-0.2-2.1c0.1-0.1,0.1-0.4,0.2-0.5
		c0.1,0.1,0.1,0.2,0.2,0.5C30.7,111.6,30.5,112.5,30.2,113.2z M30.5,106.2c-0.2,0.4,0.1,1.8,0.1,1.8s-0.1,0.5-0.4,1.2
		c-0.2-0.6-0.4-1.2-0.4-1.2s0.2-1.5,0.1-1.8c-0.2-0.4-0.5-0.9-0.5-0.9s0.5-8.1,0.7-10c0.2,1.7,0.7,10,0.7,10S30.6,105.7,30.5,106.2z
		 M41.1,60.6c-0.1,0.1-0.5,0.5-0.7,0.9c-0.5-6.4-2.7-10.7-2.9-11.1c-0.1-0.2-0.9-2.6-0.1-4.7c1-2.7,1.2-4.8,1.4-4.8
		c0.2,0,0.9-1.1,0.9-1.1s0.1,0.1,0.1,2.1c0,0.2-0.2,3.9,0,5.3C40.7,51.6,41.2,60.5,41.1,60.6z"/>
</g>
</svg>
