<?xml version="1.0" encoding="utf-8"?>
<!-- Generator: Adobe Illustrator 19.2.0, SVG Export Plug-In . SVG Version: 6.00 Build 0)  -->
<svg version="1.1" id="Layer_1" xmlns="http://www.w3.org/2000/svg" xmlns:xlink="http://www.w3.org/1999/xlink" x="0px" y="0px"
	 viewBox="0 0 100 125" style="enable-background:new 0 0 100 125;" xml:space="preserve">
<style type="text/css">
	.st0{display:none;}
	.st1{display:inline;}
	.st2{fill:#FFC548;}
</style>
<g class="st0">
	<g class="st1">
		<g>
			<path d="M-1586.1,2040.5h-53.8c-1.7,0-3.2-1.4-3.2-3.2v-76l15.8-15.8h41.2c1.7,0,3.2,1.4,3.2,3.2v88.7
				C-1582.9,2039.1-1584.3,2040.5-1586.1,2040.5z M-1611.4,2034.2h9.5v-15.8h-9.5V2034.2z M-1624.1,2034.2h9.5v-15.8h-9.5V2034.2z
				 M-1636.8,2031.8c0,1.3,1.1,2.4,2.4,2.4h7.1v-15.8h-9.5V2031.8z M-1634.4,1985.1c-1.3,0-2.4,1.1-2.4,2.4v13.5h9.5v-15.8
				L-1634.4,1985.1L-1634.4,1985.1z M-1614.6,1985.1h-9.5v15.8h9.5V1985.1z M-1601.9,1985.1h-9.5v15.8h9.5V1985.1z M-1589.2,1987.5
				c0-1.3-1.1-2.4-2.4-2.4h-7.1v15.8v1.6v1.6h-38v11.1h47.5V1987.5z M-1589.2,2018.3h-9.5v15.8h7.1c1.3,0,2.4-1.1,2.4-2.4V2018.3z"
				/>
		</g>
	</g>
	<g class="st1">
		<path d="M-1358,1599.3c25.9,0,46.9,20.9,46.9,46.7s-21,46.7-46.9,46.7s-46.9-20.9-46.9-46.7S-1383.9,1599.3-1358,1599.3z"/>
		<path d="M-1399.3,1664.7c4,4-6.5,25.3-5.6,26.1c0.9,0.9,23-7,26.3-3.7C-1374.6,1691.1-1403.2,1660.7-1399.3,1664.7z"/>
	</g>
</g>
<g>
	<path class="st2" d="M76,101.4H22c-1.2,0-1.4,0-1.7-0.3l-6-6c-0.4-0.4-0.4-1,0-1.3l6-6c0.3-0.3,0.5-0.3,1.7-0.3h54c1.1,0,2,0.9,2,2
		v10C78,100.5,77.1,101.4,76,101.4z M76,37.4H22c-1.2,0-1.4,0-1.7-0.3l-6-6c-0.4-0.4-0.4-1,0-1.3l6-6c0.3-0.3,0.5-0.3,1.7-0.3h54
		c1.1,0,2,0.9,2,2v10C78,36.5,77.1,37.4,76,37.4z M76,83.4H22c-1.1,0-2-0.9-2-2V68.8l-5.7-5.7c-0.4-0.4-0.4-1,0-1.3l5.7-5.7V43.4
		c0-1.1,0.9-2,2-2h54c1.1,0,2,0.9,2,2v38C78,82.5,77.1,83.4,76,83.4z M5,99.4c-2.8,0-5-2.2-5-5s2.2-5,5-5s5,2.2,5,5S7.8,99.4,5,99.4
		z M7,87.4H3v-18h4V87.4z M5,67.4c-2.8,0-5-2.2-5-5s2.2-5,5-5s5,2.2,5,5S7.8,67.4,5,67.4z M7,55.4H3v-18h4V55.4z M5,35.4
		c-2.8,0-5-2.2-5-5s2.2-5,5-5s5,2.2,5,5S7.8,35.4,5,35.4z"/>
</g>
</svg>
